# xmcd
#
# Track frame offsets:
# 150
# 14074
# 23584
# 37936
# 52764
# 67893
# 74482
# 89180
# 99495
# 112223
# 120995
# 137596
# 153791
# 164975
#
# Disc length: 2366 seconds
#
#
# Revision: 0
# Processed by: cddbd v1.5.1PL0 Copyright (c) Steve Scherf et al.
# Submitted via: FreeRIP 2.80 
#
DISCID=bb093c0e
DTITLE=Z-Bar Wranglers - Lonely Cowboy
DYEAR=2004
DGENRE=Country
TTITLE0=Lonely Cowboy
TTITLE1=Texas Plains
TTITLE2=Two in the Saddle
TTITLE3=Cool Water
TTITLE4=Ghost Riders
TTITLE5=Z-Bar Polka
TTITLE6=Trail Tip Song
TTITLE7=My Rifle, My Pony, and Me
TTITLE8=Line Shack Blues
TTITLE9=Navajo Trail
TTITLE10=Daddy's Hands
TTITLE11=Colorado
TTITLE12=Arms of my Love
TTITLE13=In the Garden
EXTD=
EXTT0=
EXTT1=
EXTT2=
EXTT3=
EXTT4=
EXTT5=
EXTT6=
EXTT7=
EXTT8=
EXTT9=
EXTT10=
EXTT11=
EXTT12=
EXTT13=
PLAYORDER=
